<mxfile host="app.diagrams.net" modified="2022-10-24T09:15:53.169Z" agent="5.0 (Windows NT 10.0; Win64; x64) AppleWebKit/537.36 (KHTML, like Gecko) Chrome/106.0.0.0 Safari/537.36" etag="NcT8jVokgPrahrg4Iwfr" version="20.3.7" type="github">
  <diagram id="EFDAmcywMQUgyk0wCMeb" name="第 1 页">
    <mxGraphModel dx="2249" dy="1931" grid="1" gridSize="10" guides="1" tooltips="1" connect="1" arrows="1" fold="1" page="1" pageScale="1" pageWidth="827" pageHeight="1169" math="0" shadow="0">
      <root>
        <mxCell id="0" />
        <mxCell id="1" parent="0" />
        <mxCell id="dtd9RRR36Zd7Hm7ETKHa-63" style="edgeStyle=orthogonalEdgeStyle;rounded=0;orthogonalLoop=1;jettySize=auto;html=1;entryX=0.5;entryY=1;entryDx=0;entryDy=0;" edge="1" parent="1" source="dtd9RRR36Zd7Hm7ETKHa-1" target="dtd9RRR36Zd7Hm7ETKHa-60">
          <mxGeometry relative="1" as="geometry" />
        </mxCell>
        <mxCell id="dtd9RRR36Zd7Hm7ETKHa-70" style="edgeStyle=orthogonalEdgeStyle;rounded=0;orthogonalLoop=1;jettySize=auto;html=1;" edge="1" parent="1" source="dtd9RRR36Zd7Hm7ETKHa-1" target="dtd9RRR36Zd7Hm7ETKHa-69">
          <mxGeometry relative="1" as="geometry" />
        </mxCell>
        <mxCell id="dtd9RRR36Zd7Hm7ETKHa-79" style="edgeStyle=orthogonalEdgeStyle;rounded=0;orthogonalLoop=1;jettySize=auto;html=1;entryX=0.5;entryY=0;entryDx=0;entryDy=0;" edge="1" parent="1" source="dtd9RRR36Zd7Hm7ETKHa-1" target="dtd9RRR36Zd7Hm7ETKHa-27">
          <mxGeometry relative="1" as="geometry">
            <Array as="points">
              <mxPoint x="-10" y="340" />
              <mxPoint x="-10" y="680" />
              <mxPoint x="216" y="680" />
            </Array>
          </mxGeometry>
        </mxCell>
        <mxCell id="dtd9RRR36Zd7Hm7ETKHa-94" style="edgeStyle=orthogonalEdgeStyle;rounded=0;orthogonalLoop=1;jettySize=auto;html=1;entryX=0;entryY=0.5;entryDx=0;entryDy=0;" edge="1" parent="1" source="dtd9RRR36Zd7Hm7ETKHa-1" target="dtd9RRR36Zd7Hm7ETKHa-80">
          <mxGeometry relative="1" as="geometry">
            <Array as="points">
              <mxPoint x="-100" y="340" />
              <mxPoint x="-100" y="1050" />
            </Array>
          </mxGeometry>
        </mxCell>
        <mxCell id="dtd9RRR36Zd7Hm7ETKHa-1" value="web01" style="rounded=1;whiteSpace=wrap;html=1;" vertex="1" parent="1">
          <mxGeometry x="60" y="310" width="120" height="60" as="geometry" />
        </mxCell>
        <mxCell id="dtd9RRR36Zd7Hm7ETKHa-64" style="edgeStyle=orthogonalEdgeStyle;rounded=0;orthogonalLoop=1;jettySize=auto;html=1;entryX=0.5;entryY=1;entryDx=0;entryDy=0;" edge="1" parent="1" source="dtd9RRR36Zd7Hm7ETKHa-2" target="dtd9RRR36Zd7Hm7ETKHa-60">
          <mxGeometry relative="1" as="geometry">
            <Array as="points">
              <mxPoint x="223" y="340" />
            </Array>
          </mxGeometry>
        </mxCell>
        <mxCell id="dtd9RRR36Zd7Hm7ETKHa-72" style="edgeStyle=orthogonalEdgeStyle;rounded=0;orthogonalLoop=1;jettySize=auto;html=1;" edge="1" parent="1" source="dtd9RRR36Zd7Hm7ETKHa-2" target="dtd9RRR36Zd7Hm7ETKHa-69">
          <mxGeometry relative="1" as="geometry" />
        </mxCell>
        <mxCell id="dtd9RRR36Zd7Hm7ETKHa-78" style="edgeStyle=orthogonalEdgeStyle;rounded=0;orthogonalLoop=1;jettySize=auto;html=1;entryX=0.5;entryY=0;entryDx=0;entryDy=0;" edge="1" parent="1" source="dtd9RRR36Zd7Hm7ETKHa-2" target="dtd9RRR36Zd7Hm7ETKHa-27">
          <mxGeometry relative="1" as="geometry">
            <Array as="points">
              <mxPoint x="460" y="340" />
              <mxPoint x="460" y="680" />
              <mxPoint x="216" y="680" />
            </Array>
          </mxGeometry>
        </mxCell>
        <mxCell id="dtd9RRR36Zd7Hm7ETKHa-96" style="edgeStyle=orthogonalEdgeStyle;rounded=0;orthogonalLoop=1;jettySize=auto;html=1;entryX=1;entryY=0.5;entryDx=0;entryDy=0;" edge="1" parent="1" source="dtd9RRR36Zd7Hm7ETKHa-2" target="dtd9RRR36Zd7Hm7ETKHa-80">
          <mxGeometry relative="1" as="geometry">
            <Array as="points">
              <mxPoint x="580" y="340" />
              <mxPoint x="580" y="1050" />
            </Array>
          </mxGeometry>
        </mxCell>
        <mxCell id="dtd9RRR36Zd7Hm7ETKHa-2" value="web02" style="rounded=1;whiteSpace=wrap;html=1;" vertex="1" parent="1">
          <mxGeometry x="266" y="310" width="120" height="60" as="geometry" />
        </mxCell>
        <mxCell id="dtd9RRR36Zd7Hm7ETKHa-3" value="Actor" style="shape=umlActor;verticalLabelPosition=bottom;verticalAlign=top;html=1;outlineConnect=0;" vertex="1" parent="1">
          <mxGeometry x="210" y="-130" width="30" height="60" as="geometry" />
        </mxCell>
        <mxCell id="dtd9RRR36Zd7Hm7ETKHa-4" value="" style="endArrow=classic;html=1;rounded=0;entryX=0.5;entryY=0;entryDx=0;entryDy=0;" edge="1" parent="1" source="dtd9RRR36Zd7Hm7ETKHa-3" target="dtd9RRR36Zd7Hm7ETKHa-12">
          <mxGeometry width="50" height="50" relative="1" as="geometry">
            <mxPoint x="110" y="140" as="sourcePoint" />
            <mxPoint x="140" y="80" as="targetPoint" />
          </mxGeometry>
        </mxCell>
        <mxCell id="dtd9RRR36Zd7Hm7ETKHa-6" value="mysql(master)" style="rounded=1;whiteSpace=wrap;html=1;" vertex="1" parent="1">
          <mxGeometry x="58.5" y="570" width="90" height="40" as="geometry" />
        </mxCell>
        <mxCell id="dtd9RRR36Zd7Hm7ETKHa-8" value="mysql(slave)" style="rounded=1;whiteSpace=wrap;html=1;" vertex="1" parent="1">
          <mxGeometry x="283.5" y="570" width="90" height="40" as="geometry" />
        </mxCell>
        <mxCell id="dtd9RRR36Zd7Hm7ETKHa-9" value="" style="endArrow=classic;startArrow=classic;html=1;rounded=0;exitX=1;exitY=0.5;exitDx=0;exitDy=0;entryX=0;entryY=0.5;entryDx=0;entryDy=0;" edge="1" parent="1" source="dtd9RRR36Zd7Hm7ETKHa-6" target="dtd9RRR36Zd7Hm7ETKHa-8">
          <mxGeometry width="50" height="50" relative="1" as="geometry">
            <mxPoint x="178.5" y="590" as="sourcePoint" />
            <mxPoint x="228.5" y="540" as="targetPoint" />
          </mxGeometry>
        </mxCell>
        <mxCell id="dtd9RRR36Zd7Hm7ETKHa-18" style="edgeStyle=orthogonalEdgeStyle;rounded=0;orthogonalLoop=1;jettySize=auto;html=1;entryX=0.5;entryY=0;entryDx=0;entryDy=0;" edge="1" parent="1" source="dtd9RRR36Zd7Hm7ETKHa-12" target="dtd9RRR36Zd7Hm7ETKHa-14">
          <mxGeometry relative="1" as="geometry" />
        </mxCell>
        <mxCell id="dtd9RRR36Zd7Hm7ETKHa-58" style="edgeStyle=orthogonalEdgeStyle;rounded=0;orthogonalLoop=1;jettySize=auto;html=1;" edge="1" parent="1" source="dtd9RRR36Zd7Hm7ETKHa-12" target="dtd9RRR36Zd7Hm7ETKHa-15">
          <mxGeometry relative="1" as="geometry" />
        </mxCell>
        <mxCell id="dtd9RRR36Zd7Hm7ETKHa-12" value="keepalive(vip)" style="rounded=1;whiteSpace=wrap;html=1;" vertex="1" parent="1">
          <mxGeometry x="165" width="120" height="60" as="geometry" />
        </mxCell>
        <mxCell id="dtd9RRR36Zd7Hm7ETKHa-16" style="edgeStyle=orthogonalEdgeStyle;rounded=0;orthogonalLoop=1;jettySize=auto;html=1;entryX=0.5;entryY=0;entryDx=0;entryDy=0;" edge="1" parent="1" source="dtd9RRR36Zd7Hm7ETKHa-14" target="dtd9RRR36Zd7Hm7ETKHa-1">
          <mxGeometry relative="1" as="geometry">
            <Array as="points">
              <mxPoint x="120" y="300" />
              <mxPoint x="120" y="300" />
            </Array>
          </mxGeometry>
        </mxCell>
        <mxCell id="dtd9RRR36Zd7Hm7ETKHa-62" style="edgeStyle=orthogonalEdgeStyle;rounded=0;orthogonalLoop=1;jettySize=auto;html=1;entryX=0.5;entryY=0;entryDx=0;entryDy=0;" edge="1" parent="1" source="dtd9RRR36Zd7Hm7ETKHa-14" target="dtd9RRR36Zd7Hm7ETKHa-60">
          <mxGeometry relative="1" as="geometry" />
        </mxCell>
        <mxCell id="dtd9RRR36Zd7Hm7ETKHa-97" style="edgeStyle=orthogonalEdgeStyle;rounded=0;orthogonalLoop=1;jettySize=auto;html=1;entryX=0.5;entryY=0;entryDx=0;entryDy=0;" edge="1" parent="1" source="dtd9RRR36Zd7Hm7ETKHa-14" target="dtd9RRR36Zd7Hm7ETKHa-2">
          <mxGeometry relative="1" as="geometry">
            <Array as="points">
              <mxPoint x="120" y="280" />
              <mxPoint x="326" y="280" />
            </Array>
          </mxGeometry>
        </mxCell>
        <mxCell id="dtd9RRR36Zd7Hm7ETKHa-14" value="nginx" style="rounded=1;whiteSpace=wrap;html=1;" vertex="1" parent="1">
          <mxGeometry x="50" y="140" width="120" height="60" as="geometry" />
        </mxCell>
        <mxCell id="dtd9RRR36Zd7Hm7ETKHa-17" style="edgeStyle=orthogonalEdgeStyle;rounded=0;orthogonalLoop=1;jettySize=auto;html=1;entryX=0.5;entryY=0;entryDx=0;entryDy=0;" edge="1" parent="1" source="dtd9RRR36Zd7Hm7ETKHa-15" target="dtd9RRR36Zd7Hm7ETKHa-2">
          <mxGeometry relative="1" as="geometry">
            <Array as="points">
              <mxPoint x="326" y="220" />
              <mxPoint x="326" y="220" />
            </Array>
          </mxGeometry>
        </mxCell>
        <mxCell id="dtd9RRR36Zd7Hm7ETKHa-61" style="edgeStyle=orthogonalEdgeStyle;rounded=0;orthogonalLoop=1;jettySize=auto;html=1;entryX=0.5;entryY=0;entryDx=0;entryDy=0;" edge="1" parent="1" source="dtd9RRR36Zd7Hm7ETKHa-15" target="dtd9RRR36Zd7Hm7ETKHa-60">
          <mxGeometry relative="1" as="geometry" />
        </mxCell>
        <mxCell id="dtd9RRR36Zd7Hm7ETKHa-15" value="nginx" style="rounded=1;whiteSpace=wrap;html=1;" vertex="1" parent="1">
          <mxGeometry x="280" y="140" width="120" height="60" as="geometry" />
        </mxCell>
        <mxCell id="dtd9RRR36Zd7Hm7ETKHa-29" style="edgeStyle=orthogonalEdgeStyle;rounded=0;orthogonalLoop=1;jettySize=auto;html=1;exitX=1;exitY=0.5;exitDx=0;exitDy=0;entryX=1;entryY=0.5;entryDx=0;entryDy=0;" edge="1" parent="1" source="dtd9RRR36Zd7Hm7ETKHa-20" target="dtd9RRR36Zd7Hm7ETKHa-20">
          <mxGeometry relative="1" as="geometry">
            <mxPoint x="151" y="725" as="targetPoint" />
          </mxGeometry>
        </mxCell>
        <mxCell id="dtd9RRR36Zd7Hm7ETKHa-37" style="edgeStyle=orthogonalEdgeStyle;rounded=0;orthogonalLoop=1;jettySize=auto;html=1;entryX=0.5;entryY=0;entryDx=0;entryDy=0;" edge="1" parent="1" source="dtd9RRR36Zd7Hm7ETKHa-20" target="dtd9RRR36Zd7Hm7ETKHa-23">
          <mxGeometry relative="1" as="geometry" />
        </mxCell>
        <mxCell id="dtd9RRR36Zd7Hm7ETKHa-38" style="edgeStyle=orthogonalEdgeStyle;rounded=0;orthogonalLoop=1;jettySize=auto;html=1;" edge="1" parent="1" source="dtd9RRR36Zd7Hm7ETKHa-20" target="dtd9RRR36Zd7Hm7ETKHa-24">
          <mxGeometry relative="1" as="geometry">
            <Array as="points">
              <mxPoint x="61" y="770" />
              <mxPoint x="216" y="770" />
            </Array>
          </mxGeometry>
        </mxCell>
        <mxCell id="dtd9RRR36Zd7Hm7ETKHa-41" style="edgeStyle=orthogonalEdgeStyle;rounded=0;orthogonalLoop=1;jettySize=auto;html=1;entryX=0.5;entryY=0;entryDx=0;entryDy=0;" edge="1" parent="1" source="dtd9RRR36Zd7Hm7ETKHa-20" target="dtd9RRR36Zd7Hm7ETKHa-25">
          <mxGeometry relative="1" as="geometry">
            <Array as="points">
              <mxPoint x="61" y="770" />
              <mxPoint x="395" y="770" />
            </Array>
          </mxGeometry>
        </mxCell>
        <mxCell id="dtd9RRR36Zd7Hm7ETKHa-50" style="edgeStyle=orthogonalEdgeStyle;rounded=0;orthogonalLoop=1;jettySize=auto;html=1;entryX=0.5;entryY=0;entryDx=0;entryDy=0;" edge="1" parent="1" source="dtd9RRR36Zd7Hm7ETKHa-20" target="dtd9RRR36Zd7Hm7ETKHa-28">
          <mxGeometry relative="1" as="geometry" />
        </mxCell>
        <mxCell id="dtd9RRR36Zd7Hm7ETKHa-20" value="&lt;span style=&quot;color: rgb(51, 51, 51); font-family: &amp;quot;pingfang SC&amp;quot;, &amp;quot;helvetica neue&amp;quot;, arial, &amp;quot;hiragino sans gb&amp;quot;, &amp;quot;microsoft yahei ui&amp;quot;, &amp;quot;microsoft yahei&amp;quot;, simsun, sans-serif; font-size: 14px; text-align: left; background-color: rgb(255, 255, 255);&quot;&gt;sentinel&lt;/span&gt;" style="rounded=1;whiteSpace=wrap;html=1;" vertex="1" parent="1">
          <mxGeometry x="11" y="700" width="100" height="50" as="geometry" />
        </mxCell>
        <mxCell id="dtd9RRR36Zd7Hm7ETKHa-23" value="redis" style="rounded=1;whiteSpace=wrap;html=1;" vertex="1" parent="1">
          <mxGeometry x="16" y="840" width="90" height="60" as="geometry" />
        </mxCell>
        <mxCell id="dtd9RRR36Zd7Hm7ETKHa-35" style="edgeStyle=orthogonalEdgeStyle;rounded=0;orthogonalLoop=1;jettySize=auto;html=1;" edge="1" parent="1" source="dtd9RRR36Zd7Hm7ETKHa-24" target="dtd9RRR36Zd7Hm7ETKHa-25">
          <mxGeometry relative="1" as="geometry" />
        </mxCell>
        <mxCell id="dtd9RRR36Zd7Hm7ETKHa-36" style="edgeStyle=orthogonalEdgeStyle;rounded=0;orthogonalLoop=1;jettySize=auto;html=1;entryX=1;entryY=0.5;entryDx=0;entryDy=0;" edge="1" parent="1" source="dtd9RRR36Zd7Hm7ETKHa-24" target="dtd9RRR36Zd7Hm7ETKHa-23">
          <mxGeometry relative="1" as="geometry" />
        </mxCell>
        <mxCell id="dtd9RRR36Zd7Hm7ETKHa-24" value="redis(master)" style="rounded=1;whiteSpace=wrap;html=1;" vertex="1" parent="1">
          <mxGeometry x="161" y="790" width="110" height="60" as="geometry" />
        </mxCell>
        <mxCell id="dtd9RRR36Zd7Hm7ETKHa-25" value="redis" style="rounded=1;whiteSpace=wrap;html=1;" vertex="1" parent="1">
          <mxGeometry x="350" y="840" width="90" height="60" as="geometry" />
        </mxCell>
        <mxCell id="dtd9RRR36Zd7Hm7ETKHa-42" style="edgeStyle=orthogonalEdgeStyle;rounded=0;orthogonalLoop=1;jettySize=auto;html=1;exitX=0.5;exitY=1;exitDx=0;exitDy=0;entryX=0.5;entryY=0;entryDx=0;entryDy=0;" edge="1" parent="1" source="dtd9RRR36Zd7Hm7ETKHa-27" target="dtd9RRR36Zd7Hm7ETKHa-24">
          <mxGeometry relative="1" as="geometry" />
        </mxCell>
        <mxCell id="dtd9RRR36Zd7Hm7ETKHa-27" value="&lt;span style=&quot;color: rgb(51, 51, 51); font-family: &amp;quot;pingfang SC&amp;quot;, &amp;quot;helvetica neue&amp;quot;, arial, &amp;quot;hiragino sans gb&amp;quot;, &amp;quot;microsoft yahei ui&amp;quot;, &amp;quot;microsoft yahei&amp;quot;, simsun, sans-serif; font-size: 14px; text-align: left; background-color: rgb(255, 255, 255);&quot;&gt;sentinel&lt;/span&gt;" style="rounded=1;whiteSpace=wrap;html=1;" vertex="1" parent="1">
          <mxGeometry x="166" y="700" width="100" height="50" as="geometry" />
        </mxCell>
        <mxCell id="dtd9RRR36Zd7Hm7ETKHa-43" style="edgeStyle=orthogonalEdgeStyle;rounded=0;orthogonalLoop=1;jettySize=auto;html=1;entryX=0.5;entryY=0;entryDx=0;entryDy=0;" edge="1" parent="1" source="dtd9RRR36Zd7Hm7ETKHa-28" target="dtd9RRR36Zd7Hm7ETKHa-24">
          <mxGeometry relative="1" as="geometry">
            <Array as="points">
              <mxPoint x="361" y="770" />
              <mxPoint x="216" y="770" />
            </Array>
          </mxGeometry>
        </mxCell>
        <mxCell id="dtd9RRR36Zd7Hm7ETKHa-48" style="edgeStyle=orthogonalEdgeStyle;rounded=0;orthogonalLoop=1;jettySize=auto;html=1;entryX=0.5;entryY=0;entryDx=0;entryDy=0;" edge="1" parent="1" source="dtd9RRR36Zd7Hm7ETKHa-28" target="dtd9RRR36Zd7Hm7ETKHa-20">
          <mxGeometry relative="1" as="geometry">
            <mxPoint x="361" y="650" as="targetPoint" />
            <Array as="points">
              <mxPoint x="361" y="680" />
              <mxPoint x="61" y="680" />
            </Array>
          </mxGeometry>
        </mxCell>
        <mxCell id="dtd9RRR36Zd7Hm7ETKHa-28" value="&lt;span style=&quot;color: rgb(51, 51, 51); font-family: &amp;quot;pingfang SC&amp;quot;, &amp;quot;helvetica neue&amp;quot;, arial, &amp;quot;hiragino sans gb&amp;quot;, &amp;quot;microsoft yahei ui&amp;quot;, &amp;quot;microsoft yahei&amp;quot;, simsun, sans-serif; font-size: 14px; text-align: left; background-color: rgb(255, 255, 255);&quot;&gt;sentinel&lt;/span&gt;" style="rounded=1;whiteSpace=wrap;html=1;" vertex="1" parent="1">
          <mxGeometry x="311" y="700" width="100" height="50" as="geometry" />
        </mxCell>
        <mxCell id="dtd9RRR36Zd7Hm7ETKHa-30" value="" style="endArrow=classic;startArrow=classic;html=1;rounded=0;exitX=1;exitY=0.5;exitDx=0;exitDy=0;entryX=0;entryY=0.5;entryDx=0;entryDy=0;" edge="1" parent="1" source="dtd9RRR36Zd7Hm7ETKHa-20" target="dtd9RRR36Zd7Hm7ETKHa-27">
          <mxGeometry width="50" height="50" relative="1" as="geometry">
            <mxPoint x="111" y="770" as="sourcePoint" />
            <mxPoint x="161" y="720" as="targetPoint" />
          </mxGeometry>
        </mxCell>
        <mxCell id="dtd9RRR36Zd7Hm7ETKHa-31" value="" style="endArrow=classic;startArrow=classic;html=1;rounded=0;entryX=0;entryY=0.5;entryDx=0;entryDy=0;" edge="1" parent="1">
          <mxGeometry width="50" height="50" relative="1" as="geometry">
            <mxPoint x="261" y="725" as="sourcePoint" />
            <mxPoint x="311" y="724.5" as="targetPoint" />
          </mxGeometry>
        </mxCell>
        <mxCell id="dtd9RRR36Zd7Hm7ETKHa-55" value="rabbitmq(mqtt)" style="rounded=1;whiteSpace=wrap;html=1;" vertex="1" parent="1">
          <mxGeometry x="-9" y="1260" width="120" height="60" as="geometry" />
        </mxCell>
        <mxCell id="dtd9RRR36Zd7Hm7ETKHa-86" value="" style="edgeStyle=orthogonalEdgeStyle;rounded=0;orthogonalLoop=1;jettySize=auto;html=1;" edge="1" parent="1" source="dtd9RRR36Zd7Hm7ETKHa-56" target="dtd9RRR36Zd7Hm7ETKHa-55">
          <mxGeometry relative="1" as="geometry" />
        </mxCell>
        <mxCell id="dtd9RRR36Zd7Hm7ETKHa-56" value="rabbitmq(mqtt)" style="rounded=1;whiteSpace=wrap;html=1;" vertex="1" parent="1">
          <mxGeometry x="170" y="1260" width="120" height="60" as="geometry" />
        </mxCell>
        <mxCell id="dtd9RRR36Zd7Hm7ETKHa-57" value="rabbitmq(mqtt)" style="rounded=1;whiteSpace=wrap;html=1;" vertex="1" parent="1">
          <mxGeometry x="350" y="1260" width="120" height="60" as="geometry" />
        </mxCell>
        <mxCell id="dtd9RRR36Zd7Hm7ETKHa-66" style="edgeStyle=orthogonalEdgeStyle;rounded=0;orthogonalLoop=1;jettySize=auto;html=1;entryX=0;entryY=0.5;entryDx=0;entryDy=0;" edge="1" parent="1" source="dtd9RRR36Zd7Hm7ETKHa-60" target="dtd9RRR36Zd7Hm7ETKHa-65">
          <mxGeometry relative="1" as="geometry" />
        </mxCell>
        <mxCell id="dtd9RRR36Zd7Hm7ETKHa-60" value="（vip）nfs" style="rounded=0;whiteSpace=wrap;html=1;" vertex="1" parent="1">
          <mxGeometry x="185" y="210" width="75" height="40" as="geometry" />
        </mxCell>
        <mxCell id="dtd9RRR36Zd7Hm7ETKHa-65" value="nfs备份" style="rounded=0;whiteSpace=wrap;html=1;" vertex="1" parent="1">
          <mxGeometry x="440" y="210" width="75" height="40" as="geometry" />
        </mxCell>
        <mxCell id="dtd9RRR36Zd7Hm7ETKHa-68" value="半同步复制" style="text;html=1;strokeColor=none;fillColor=none;align=center;verticalAlign=middle;whiteSpace=wrap;rounded=0;" vertex="1" parent="1">
          <mxGeometry x="183.5" y="560" width="70" height="30" as="geometry" />
        </mxCell>
        <mxCell id="dtd9RRR36Zd7Hm7ETKHa-73" style="edgeStyle=orthogonalEdgeStyle;rounded=0;orthogonalLoop=1;jettySize=auto;html=1;" edge="1" parent="1" source="dtd9RRR36Zd7Hm7ETKHa-69" target="dtd9RRR36Zd7Hm7ETKHa-6">
          <mxGeometry relative="1" as="geometry">
            <Array as="points">
              <mxPoint x="216" y="520" />
              <mxPoint x="104" y="520" />
            </Array>
          </mxGeometry>
        </mxCell>
        <mxCell id="dtd9RRR36Zd7Hm7ETKHa-74" style="edgeStyle=orthogonalEdgeStyle;rounded=0;orthogonalLoop=1;jettySize=auto;html=1;entryX=0.5;entryY=0;entryDx=0;entryDy=0;" edge="1" parent="1" source="dtd9RRR36Zd7Hm7ETKHa-69" target="dtd9RRR36Zd7Hm7ETKHa-8">
          <mxGeometry relative="1" as="geometry">
            <Array as="points">
              <mxPoint x="216" y="520" />
              <mxPoint x="329" y="520" />
            </Array>
          </mxGeometry>
        </mxCell>
        <mxCell id="dtd9RRR36Zd7Hm7ETKHa-69" value="keepalive(vip)" style="rounded=1;whiteSpace=wrap;html=1;" vertex="1" parent="1">
          <mxGeometry x="156" y="430" width="120" height="60" as="geometry" />
        </mxCell>
        <mxCell id="dtd9RRR36Zd7Hm7ETKHa-92" style="edgeStyle=orthogonalEdgeStyle;rounded=0;orthogonalLoop=1;jettySize=auto;html=1;" edge="1" parent="1" source="dtd9RRR36Zd7Hm7ETKHa-80" target="dtd9RRR36Zd7Hm7ETKHa-83">
          <mxGeometry relative="1" as="geometry">
            <Array as="points">
              <mxPoint x="223" y="1100" />
              <mxPoint x="61" y="1100" />
            </Array>
          </mxGeometry>
        </mxCell>
        <mxCell id="dtd9RRR36Zd7Hm7ETKHa-93" style="edgeStyle=orthogonalEdgeStyle;rounded=0;orthogonalLoop=1;jettySize=auto;html=1;entryX=0.5;entryY=0;entryDx=0;entryDy=0;" edge="1" parent="1" source="dtd9RRR36Zd7Hm7ETKHa-80" target="dtd9RRR36Zd7Hm7ETKHa-87">
          <mxGeometry relative="1" as="geometry">
            <Array as="points">
              <mxPoint x="223" y="1100" />
              <mxPoint x="410" y="1100" />
            </Array>
          </mxGeometry>
        </mxCell>
        <mxCell id="dtd9RRR36Zd7Hm7ETKHa-80" value="VIP" style="rounded=1;whiteSpace=wrap;html=1;" vertex="1" parent="1">
          <mxGeometry x="162.5" y="1020" width="120" height="60" as="geometry" />
        </mxCell>
        <mxCell id="dtd9RRR36Zd7Hm7ETKHa-88" style="edgeStyle=orthogonalEdgeStyle;rounded=0;orthogonalLoop=1;jettySize=auto;html=1;entryX=0.579;entryY=0.017;entryDx=0;entryDy=0;entryPerimeter=0;" edge="1" parent="1" source="dtd9RRR36Zd7Hm7ETKHa-83" target="dtd9RRR36Zd7Hm7ETKHa-55">
          <mxGeometry relative="1" as="geometry" />
        </mxCell>
        <mxCell id="dtd9RRR36Zd7Hm7ETKHa-89" style="edgeStyle=orthogonalEdgeStyle;rounded=0;orthogonalLoop=1;jettySize=auto;html=1;entryX=0.575;entryY=0;entryDx=0;entryDy=0;entryPerimeter=0;" edge="1" parent="1" source="dtd9RRR36Zd7Hm7ETKHa-83" target="dtd9RRR36Zd7Hm7ETKHa-56">
          <mxGeometry relative="1" as="geometry">
            <Array as="points">
              <mxPoint x="61" y="1220" />
              <mxPoint x="239" y="1220" />
            </Array>
          </mxGeometry>
        </mxCell>
        <mxCell id="dtd9RRR36Zd7Hm7ETKHa-90" style="edgeStyle=orthogonalEdgeStyle;rounded=0;orthogonalLoop=1;jettySize=auto;html=1;" edge="1" parent="1" source="dtd9RRR36Zd7Hm7ETKHa-83" target="dtd9RRR36Zd7Hm7ETKHa-57">
          <mxGeometry relative="1" as="geometry">
            <Array as="points">
              <mxPoint x="61" y="1220" />
              <mxPoint x="410" y="1220" />
            </Array>
          </mxGeometry>
        </mxCell>
        <mxCell id="dtd9RRR36Zd7Hm7ETKHa-83" value="nginx keepalived" style="rounded=1;whiteSpace=wrap;html=1;" vertex="1" parent="1">
          <mxGeometry x="1" y="1120" width="120" height="60" as="geometry" />
        </mxCell>
        <mxCell id="dtd9RRR36Zd7Hm7ETKHa-84" value="" style="endArrow=classic;startArrow=classic;html=1;rounded=0;exitX=1;exitY=0.5;exitDx=0;exitDy=0;entryX=0;entryY=0.5;entryDx=0;entryDy=0;" edge="1" parent="1" source="dtd9RRR36Zd7Hm7ETKHa-55" target="dtd9RRR36Zd7Hm7ETKHa-56">
          <mxGeometry width="50" height="50" relative="1" as="geometry">
            <mxPoint x="110" y="1290" as="sourcePoint" />
            <mxPoint x="160" y="1290" as="targetPoint" />
          </mxGeometry>
        </mxCell>
        <mxCell id="dtd9RRR36Zd7Hm7ETKHa-85" value="" style="endArrow=classic;startArrow=classic;html=1;rounded=0;entryX=0;entryY=0.5;entryDx=0;entryDy=0;" edge="1" parent="1" target="dtd9RRR36Zd7Hm7ETKHa-57">
          <mxGeometry width="50" height="50" relative="1" as="geometry">
            <mxPoint x="290" y="1290" as="sourcePoint" />
            <mxPoint x="332.5" y="1289.5" as="targetPoint" />
          </mxGeometry>
        </mxCell>
        <mxCell id="dtd9RRR36Zd7Hm7ETKHa-91" style="edgeStyle=orthogonalEdgeStyle;rounded=0;orthogonalLoop=1;jettySize=auto;html=1;exitX=0.5;exitY=1;exitDx=0;exitDy=0;" edge="1" parent="1" source="dtd9RRR36Zd7Hm7ETKHa-87" target="dtd9RRR36Zd7Hm7ETKHa-56">
          <mxGeometry relative="1" as="geometry">
            <mxPoint x="240" y="1250" as="targetPoint" />
            <Array as="points">
              <mxPoint x="410" y="1220" />
              <mxPoint x="240" y="1220" />
            </Array>
          </mxGeometry>
        </mxCell>
        <mxCell id="dtd9RRR36Zd7Hm7ETKHa-87" value="nginx keepalived" style="rounded=1;whiteSpace=wrap;html=1;" vertex="1" parent="1">
          <mxGeometry x="350" y="1120" width="120" height="60" as="geometry" />
        </mxCell>
      </root>
    </mxGraphModel>
  </diagram>
</mxfile>
